:SAMPLES-PER-SECOND 30
:FULLY-SPECIFIED
:DEGREES
99
root  0.578062 39.342 6.71254 178.032 -44.3544 -169.494
RightUpLeg  -3.06324 -3.77802 5.04117
RightLeg  8.62685 -31.3232 -5.03937
RightFoot  -3.47941 -0.918778 12.952
RightToes  6.35927e-011 1.30204e-014 -6.03759e-014
Spine  14.2299 -0.460514 -0.601641
Spine1  -5.19932 -4.3159 24.5246
HEad  -4.85666 18.7397 -10.3223
LeftShoulder1  1.58391 -3.04162 -17.559
LeftArm  17.6264 23.3812 -56.6614
LeftForeArm  39.0183 -54.8664 -12.6879
LeftHand  0.561004 -2.25562 -8.6589
RightShoulder  1.32144 1.60306 19.5006
RightArm  -19.2695 -31.9606 35.4436
RightForeArm  24.3127 76.938 63.4486
RightHand  -0.973101 -2.64916 -36.9663
LeftUpLeg  -29.0407 29.1515 12.1063
LeftLeg  19.4279 0.452915 0.509663
LeftFoot  15.5017 2.3556 -10.3134
LeftToes  7.40077e-010 7.2695e-011 -6.03601e-011
100
root  0.60398 39.3408 6.84906 178.881 -49.8331 -170.623
RightUpLeg  -4.3672 -4.24159 4.01364
RightLeg  11.9988 -35.7519 -7.8896
RightFoot  -3.70973 -0.911463 13.231
RightToes  6.35927e-011 1.30204e-014 -6.03759e-014
Spine  13.3837 -1.02196 2.52698
Spine1  -2.48231 -4.6505 20.9577
HEad  -9.98657 13.4846 -12.5234
LeftShoulder1  1.76652 -3.57362 -18.3889
LeftArm  12.0797 21.8336 -55.1141
LeftForeArm  36.6685 -58.2431 -14.9018
LeftHand  0.592238 0.97409 -15.6273
RightShoulder  1.28678 1.40519 19.8659
RightArm  -32.0579 -29.8167 43.1509
RightForeArm  20.0149 76.3653 58.8616
RightHand  -2.73732 -0.259292 -58.8946
LeftUpLeg  -30.437 28.3962 9.23224
LeftLeg  19.7119 -9.79607 -3.58874
LeftFoot  11.6157 3.23691 -16.2639
LeftToes  7.40077e-010 7.2695e-011 -6.03601e-011
101
root  0.398975 39.528 7.08049 -179.284 -54.9558 -173.685
RightUpLeg  -3.92924 -5.02228 1.68126
RightLeg  13.675 -39.4576 -10.2259
RightFoot  -2.84715 -1.03279 13.5736
RightToes  6.35927e-011 1.30204e-014 -6.03759e-014
Spine  11.997 -1.95475 7.155
Spine1  1.19296 -4.47049 13.9059
HEad  -13.3426 7.28645 -14.1072
LeftShoulder1  1.9089 -3.9679 -19.0306
LeftArm  6.49958 20.7171 -54.1972
LeftForeArm  42.2849 -61.8435 -17.0019
LeftHand  0.174452 4.06827 -17.0693
RightShoulder  1.29878 1.4696 19.762
RightArm  -36.8348 -28.1129 48.2086
RightForeArm  22.0279 76.1028 55.5995
RightHand  -3.78889 0.878805 -63.8912
LeftUpLeg  -28.8901 24.8711 6.51716
LeftLeg  21.1058 -13.6372 -5.41064
LeftFoot  7.09789 3.10832 -19.1332
LeftToes  7.40077e-010 7.2695e-011 -6.03601e-011
102
root  0.0105519 39.8244 7.36187 -175.151 -59.5777 -179.939
RightUpLeg  -1.67972 -6.78842 -2.56657
RightLeg  13.4487 -41.915 -10.9567
RightFoot  -1.96507 -1.22613 14.7137
RightToes  6.35927e-011 1.30204e-014 -6.03759e-014
Spine  11.4836 -2.83416 10.3857
Spine1  3.23417 -3.71134 6.75071
HEad  -13.4362 1.62728 -14.9546
LeftShoulder1  1.89774 -3.87394 -19.2129
LeftArm  2.2921 21.7367 -54.4335
LeftForeArm  55.5228 -65.9249 -19.3578
LeftHand  0.0591994 4.11954 -10.7232
RightShoulder  1.29678 1.54285 19.3061
RightArm  -31.4591 -28.8992 48.6882
RightForeArm  34.625 76.8918 57.9912
RightHand  -2.71463 -0.033943 -53.747
LeftUpLeg  -24.2095 19.076 2.98002
LeftLeg  20.8413 -9.59689 -3.70171
LeftFoot  5.17932 2.19081 -15.2734
LeftToes  7.40077e-010 7.2695e-011 -6.03601e-011
103
root  -0.476687 40.0739 7.65732 -168.44 -61.9192 171.732
RightUpLeg  -0.437531 -9.05236 -7.76598
RightLeg  14.2009 -42.1667 -11.6519
RightFoot  -1.39672 -1.36183 15.4612
RightToes  6.35927e-011 1.30204e-014 -6.03759e-014
Spine  11.1199 -2.9002 12.71
Spine1  3.9889 -2.07318 -0.0947439
HEad  -11.4997 -2.80506 -15.5143
LeftShoulder1  1.77308 -3.46106 -18.9247
LeftArm  -0.167644 24.3155 -54.6789
LeftForeArm  68.4903 -69.9263 -22.8056
LeftHand  -0.122788 2.93847 3.56406
RightShoulder  1.22674 1.38876 18.6295
RightArm  -22.6761 -31.558 47.5359
RightForeArm  70.9978 79.2887 79.0602
RightHand  -1.06059 -2.11167 -34.8044
LeftUpLeg  -18.3503 13.6941 -1.3268
LeftLeg  16.7522 -3.55455 -1.10422
LeftFoot  5.54849 1.31846 -9.10996
LeftToes  7.40077e-010 7.2695e-011 -6.03601e-011
104
root  -0.956823 40.1674 7.91389 -161.412 -62.208 164.286
RightUpLeg  -1.41957 -10.2848 -12.1361
RightLeg  17.1732 -41.51 -13.8272
RightFoot  -1.05589 -1.40977 15.4867
RightToes  6.35927e-011 1.30204e-014 -6.03759e-014
Spine  10.1134 -2.3 15.0982
Spine1  4.97164 0.127229 -6.78373
HEad  -9.52203 -6.1798 -16.0252
LeftShoulder1  1.65412 -3.07186 -18.5998
LeftArm  -1.81422 26.6431 -53.8969
LeftForeArm  76.6319 -73.264 -27.7778
LeftHand  -0.476657 2.53447 20.1787
RightShoulder  1.11895 1.12394 17.6673
RightArm  -16.2344 -33.2019 47.744
RightForeArm  119.562 79.7961 109.732
RightHand  -0.24069 -2.8096 -13.6516
LeftUpLeg  -13.8095 7.30031 -4.55899
LeftLeg  10.4497 1.75028 -0.700061
LeftFoot  5.65984 0.900811 -6.24817
LeftToes  7.40077e-010 7.2695e-011 -6.03601e-011
105
root  -1.33674 40.0101 8.05089 -155.169 -62.6506 157.659
RightUpLeg  -2.99273 -8.98244 -15.4242
RightLeg  23.3922 -42.349 -18.3729
RightFoot  -2.02412 -1.38895 16.8416
RightToes  6.35927e-011 1.30204e-014 -6.03759e-014
Spine  9.21323 -1.88004 16.2283
Spine1  6.53392 1.75426 -11.6423
HEad  -8.58946 -8.85678 -16.1252
LeftShoulder1  1.58107 -2.79626 -18.533
LeftArm  -3.57754 27.464 -52.5659
LeftForeArm  82.003 -76.0298 -34.6628
LeftHand  -0.525465 3.13188 27.9374
RightShoulder  1.08145 1.11895 16.8134
RightArm  -11.4901 -32.5844 49.0573
RightForeArm  146.228 79.0102 124.715
RightHand  0.116914 -0.656962 2.9201
LeftUpLeg  -11.4812 0.798959 -6.98548
LeftLeg  6.26617 5.56131 -1.28352
LeftFoot  4.17727 0.957555 -7.23612
LeftToes  7.40077e-010 7.2695e-011 -6.03601e-011
106
root  -1.54708 39.5974 8.02249 -149.258 -64.1702 150.072
RightUpLeg  -4.21375 -7.46541 -18.3322
RightLeg  34.0215 -42.1461 -26.0675
RightFoot  -3.61436 -1.36585 19.5479
RightToes  6.35927e-011 1.30204e-014 -6.03759e-014
Spine  9.76895 -1.96652 14.3355
Spine1  7.90271 2.0978 -13.316
HEad  -8.73597 -11.0439 -15.3451
LeftShoulder1  1.54245 -2.66656 -18.4253
LeftArm  -5.41697 26.3518 -51.9914
LeftForeArm  85.9416 -77.9307 -42.2693
LeftHand  -0.178527 4.66373 21.1304
RightShoulder  1.14804 1.45432 16.5379
RightArm  -7.37589 -30.5712 50.126
RightForeArm  144.231 78.999 124.027
RightHand  0.366821 -1.61944 11.8147
LeftUpLeg  -10.564 -0.732458 -9.84457
LeftLeg  7.35528 5.21573 -1.21374
LeftFoot  1.43015 0.945797 -8.49619
LeftToes  7.40077e-010 7.2695e-011 -6.03601e-011
107
root  -1.58751 39.0014 7.84543 -144.572 -65.893 142.789
RightUpLeg  -6.70789 -7.34182 -20.5528
RightLeg  47.388 -36.6182 -34.9077
RightFoot  -2.0043 -1.61196 19.5629
RightToes  6.35927e-011 1.30204e-014 -6.03759e-014
Spine  12.082 -2.05176 10.3885
Spine1  8.40904 1.71156 -12.7665
HEad  -9.43826 -12.865 -13.7325
LeftShoulder1  1.56795 -2.86001 -18.042
LeftArm  -6.63111 23.305 -52.593
LeftForeArm  84.2815 -78.2601 -44.9899
LeftHand  0.0445623 8.1732 5.18363
RightShoulder  1.22203 1.76327 16.587
RightArm  -5.66603 -28.0054 51.5109
RightForeArm  126.163 79.8124 112.12
RightHand  -0.0428351 -5.39653 16.4995
LeftUpLeg  -10.8143 0.255483 -11.9625
LeftLeg  13.3433 3.13505 -0.943216
LeftFoot  -2.27645 0.66677 -8.19096
LeftToes  7.40077e-010 7.2695e-011 -6.03601e-011
108
root  -1.55523 38.2777 7.51564 -142.106 -67.1131 138.062
RightUpLeg  -11.6947 -7.4197 -22.1715
RightLeg  59.0173 -25.6856 -37.9493
RightFoot  3.65451 -1.77773 13.8809
RightToes  6.35927e-011 1.30204e-014 -6.03759e-014
Spine  14.8357 -1.76927 6.2475
Spine1  8.26166 1.3976 -12.0587
HEad  -10.1823 -14.4884 -11.4739
LeftShoulder1  1.69285 -3.48696 -17.5868
LeftArm  -6.54639 18.7999 -53.6408
LeftForeArm  75.0616 -76.7987 -39.7585
LeftHand  -0.946678 13.9734 -11.1983
RightShoulder  1.21927 1.76902 16.5011
RightArm  -6.99414 -25.3752 53.8504
RightForeArm  106.426 80.5528 92.1617
RightHand  -0.292263 -6.72495 20.7763
LeftUpLeg  -12.517 2.76941 -13.0579
LeftLeg  21.6662 -0.924429 -0.717005
LeftFoot  -6.72411 0.351153 -7.75749
LeftToes  7.40077e-010 7.2695e-011 -6.03601e-011
109
root  -1.59153 37.5336 6.99258 -142.195 -67.806 136.616
RightUpLeg  -17.9422 -8.74914 -23.3647
RightLeg  67.4039 -13.5994 -32.3294
RightFoot  8.25664 -1.06077 6.31433
RightToes  6.35927e-011 1.30204e-014 -6.03759e-014
Spine  16.7583 -1.25884 2.30907
Spine1  8.07487 1.26543 -11.8869
HEad  -10.8528 -15.9554 -8.46944
LeftShoulder1  1.88933 -4.36817 -17.354
LeftArm  -4.56292 13.6058 -54.3668
LeftForeArm  64.6784 -74.1119 -32.238
LeftHand  -3.49731 19.8757 -25.5529
RightShoulder  1.19735 1.67573 16.4959
RightArm  -9.21237 -23.1851 55.6161
RightForeArm  91.8234 80.349 71.6681
RightHand  -0.120828 -5.70115 24.8033
LeftUpLeg  -14.5365 3.24237 -12.4946
LeftLeg  29.5565 -2.47669 -1.03922
LeftFoot  -11.2323 0.0728395 -8.31867
LeftToes  7.40077e-010 7.2695e-011 -6.03601e-011
110
root  -1.74759 37.0992 6.25249 -145.591 -68.0177 138.806
RightUpLeg  -23.6395 -11.6092 -23.8308
RightLeg  74.2016 -6.27295 -25.1077
RightFoot  8.26515 -0.568649 3.62376
RightToes  6.35927e-011 1.30204e-014 -6.03759e-014
Spine  17.6891 -0.643339 -1.66197
Spine1  8.08934 1.19757 -11.5566
HEad  -11.3842 -17.2647 -4.69546
LeftShoulder1  2.08648 -5.15149 -17.4719
LeftArm  -0.184334 8.29486 -54.7583
LeftForeArm  56.9215 -71.505 -27.338
LeftHand  -6.78939 23.9966 -38.1736
RightShoulder  1.2328 1.74848 16.8812
RightArm  -10.5112 -21.2331 55.2914
RightForeArm  80.7236 79.1974 55.7922
RightHand  -0.340157 -6.44792 28.2319
LeftUpLeg  -14.4945 3.54904 -10.3252
LeftLeg  33.842 -2.25902 -1.22843
LeftFoot  -14.2882 -0.160216 -9.56171
LeftToes  7.40077e-010 7.2695e-011 -6.03601e-011
